<svg width="126" height="34" viewBox="0 0 126 34" fill="none" xmlns="http://www.w3.org/2000/svg">
<path d="M50.4191 3.28711V23.0528C50.4191 23.7706 50.288 24.3504 50.0327 24.7645C49.8061 25.1578 49.4891 25.4914 49.108 25.7377C48.7632 25.954 48.3821 26.106 47.9831 26.1864C47.6581 26.2533 47.328 26.2925 46.9963 26.3037C46.6621 26.2963 46.3294 26.257 46.0026 26.1864C45.5999 26.1116 45.2155 25.9592 44.8709 25.7377C44.4892 25.4899 44.1703 25.1567 43.9393 24.7645C43.684 24.3504 43.5529 23.7706 43.5529 23.0528V3.29401H38.8604V23.0528C38.8647 23.5805 38.9131 24.1069 39.0053 24.6265C39.2265 25.8755 39.7422 27.0539 40.5096 28.0638C40.9424 28.6232 41.4591 29.1121 42.0416 29.5132C42.6957 29.9639 43.418 30.3064 44.1808 30.5278C45.002 30.7763 45.9612 30.9005 47.0239 30.9005C48.1073 30.9005 49.032 30.7763 49.8463 30.5278C50.6047 30.3068 51.324 29.9691 51.9787 29.527C52.5538 29.1246 53.0655 28.6383 53.4968 28.0845C53.8931 27.5654 54.2245 26.9998 54.4836 26.4003C54.7178 25.8455 54.8913 25.267 55.0012 24.6748C55.0933 24.1552 55.1418 23.6288 55.1461 23.1011V3.30091L50.4191 3.28711Z" fill="white"/>
<path d="M71.8715 15.7945L66.2267 12.8887C65.9981 12.7686 65.7769 12.6349 65.5642 12.4884C65.3601 12.3491 65.1766 12.1818 65.019 11.9914C64.8593 11.8015 64.7312 11.5871 64.6395 11.3564C64.5388 11.0897 64.4896 10.8063 64.4946 10.5213C64.4946 10.045 64.5843 9.62399 64.7706 9.27199C64.9415 8.92795 65.1895 8.62799 65.4952 8.39541C65.8064 8.15809 66.1601 7.98239 66.5372 7.87775C66.9324 7.76627 67.3411 7.71052 67.7517 7.7121C68.842 7.7121 69.6977 7.98128 70.2981 8.51965C70.8985 9.05802 71.2021 9.78965 71.2021 10.7421V11.315H75.9567V10.7421C75.9567 9.60329 75.7566 8.55416 75.3563 7.62927C74.9639 6.70905 74.386 5.87963 73.6588 5.19281C72.9075 4.49523 72.0224 3.9575 71.0572 3.61222C70.0635 3.2395 68.9525 3.05315 67.7517 3.05315C66.6717 3.0428 65.5987 3.22752 64.5843 3.59842C63.6558 3.94614 62.8013 4.466 62.0655 5.13069C61.3588 5.78877 60.7951 6.58522 60.4093 7.47052C60.0063 8.40526 59.8018 9.41359 59.809 10.4315C59.809 11.8051 60.1333 13.0682 60.7751 14.1725C61.4237 15.2907 62.4037 16.1948 63.6941 16.8713L69.6149 19.9979C70.2981 20.3568 70.8088 20.7917 71.14 21.3024C71.4192 21.7538 71.5828 22.267 71.6166 22.7967C71.6503 23.3264 71.5529 23.8563 71.3332 24.3394C71.139 24.7444 70.864 25.1054 70.5251 25.4002C70.1528 25.7127 69.7274 25.9558 69.2692 26.1181C68.7573 26.2984 68.2178 26.3872 67.6751 26.3803C67.1724 26.3889 66.6722 26.3071 66.1984 26.1388C65.778 25.9873 65.3912 25.7552 65.0597 25.4555C64.744 25.1646 64.4945 24.8091 64.3283 24.4132C64.1522 23.9962 64.0629 23.5476 64.066 23.0949V22.5013H59.3666V23.0949C59.3555 24.1771 59.5645 25.2503 59.9808 26.2492C60.3774 27.1841 60.965 28.0258 61.706 28.7202C62.4706 29.4241 63.3664 29.9706 64.3421 30.3284C65.3565 30.708 66.4882 30.9013 67.7096 30.9013C68.865 30.9089 70.0124 30.7102 71.0979 30.3146C72.1034 29.9501 73.029 29.3946 73.8237 28.6788C74.6063 27.9742 75.2306 27.1115 75.6553 26.1478C76.08 25.1841 76.2954 24.1412 76.2873 23.088C76.2873 21.4867 75.9146 20.0511 75.1762 18.8225C74.4385 17.5753 73.3275 16.5538 71.8715 15.7945Z" fill="white"/>
<path d="M96.4308 8.64318C96.2537 8.02519 96.0156 7.42636 95.72 6.85552C95.3777 6.1951 94.9142 5.60504 94.3536 5.11618C93.774 4.59162 93.0425 4.15678 92.173 3.80477C91.3035 3.45276 90.2339 3.28711 88.9849 3.28711H80.5107V30.5575H89.0891C90.3312 30.5575 91.3939 30.385 92.2496 30.0399C93.1329 29.6878 93.8368 29.253 94.4026 28.7215C94.9509 28.219 95.4023 27.6201 95.7345 26.9546C96.0279 26.374 96.2636 25.766 96.4384 25.1393C96.5823 24.6437 96.677 24.1351 96.7213 23.6208C96.7558 23.2343 96.7696 22.9306 96.7696 22.7719V10.974C96.7696 10.8429 96.7489 10.5668 96.7144 10.1389C96.6799 9.71094 96.5826 9.21606 96.4308 8.64318ZM92.0971 22.7374C92.0971 23.3862 92.0005 23.9245 91.8142 24.3318C91.6539 24.6979 91.4106 25.0217 91.1034 25.2774C90.8221 25.5038 90.4909 25.66 90.1373 25.7329C89.7751 25.8158 89.4047 25.8575 89.0332 25.8571H85.2516V7.98057H88.9987C89.3728 7.98187 89.7455 8.02586 90.1097 8.11171C90.4686 8.19148 90.8055 8.34937 91.0965 8.57416C91.4092 8.82335 91.6556 9.14575 91.8142 9.51285C92.0005 9.91318 92.0971 10.4446 92.0971 11.0796V22.7374Z" fill="white"/>
<path d="M125.652 3.25977H120.897V30.5992H125.652V3.25977Z" fill="white"/>
<path d="M100.99 3.28711V30.5644H105.745V19.2656H115.848V14.5652H105.745V7.98748H116.676V3.28711H100.99Z" fill="white"/>
<path d="M16.9965 0C7.61152 0 0 7.61307 0 17C0 26.3869 7.61152 34 16.9965 34C26.3815 34 33.9931 26.3869 33.9931 17C33.9931 7.61307 26.3815 0 16.9965 0ZM7.27338 26.7251C4.69464 24.1459 3.24592 20.6476 3.24592 17C3.24592 13.3524 4.69464 9.85413 7.27338 7.27487C9.85212 4.6956 13.3496 3.24659 16.9965 3.24659C20.6434 3.24659 24.1409 4.6956 26.7197 7.27487C29.2984 9.85413 30.7471 13.3524 30.7471 17C30.7471 20.6476 29.2984 24.1459 26.7197 26.7251C24.1409 29.3044 20.6434 30.7534 16.9965 30.7534C13.3496 30.7534 9.85212 29.3044 7.27338 26.7251Z" fill="url(#paint0_linear_3514_3)"/>
<path d="M19.1914 14.8874H14.8025V12.8582C14.8025 12.0023 15.2235 11.174 16.5622 11.174H17.1626V8.5167C17.1626 8.5167 16.6864 8.30273 15.5064 8.30273C13.0428 8.30273 11.4281 9.8005 11.4281 12.5061V14.8874H8.68848V18.0072H11.4281V25.6824H14.8025V18.0072H19.1845V25.6893H22.559V14.8874H19.1914Z" fill="white"/>
<path d="M18.7285 9.87007C18.7285 8.59317 19.5842 7.7373 20.8884 7.7373C22.1927 7.7373 23.0208 8.59317 23.0208 9.84246C23.0208 11.1539 22.1651 12.0304 20.8884 12.0304C19.5497 12.0304 18.7285 11.1194 18.7285 9.87007Z" fill="white"/>
<defs>
<linearGradient id="paint0_linear_3514_3" x1="4.97889" y1="4.9799" x2="29.0191" y2="29.0152" gradientUnits="userSpaceOnUse">
<stop stop-color="#00FF41"/>
<stop offset="1" stop-color="#ADFF00"/>
</linearGradient>
</defs>
</svg>
